<?xml version="1.0" standalone="no"?>
<!DOCTYPE svg PUBLIC "-//W3C//DTD SVG 1.1//EN" "http://www.w3.org/Graphics/SVG/1.1/DTD/svg11.dtd" >
<svg xmlns="http://www.w3.org/2000/svg">
<metadata>
DarkGalaxy SVG Font
</metadata>
<defs>
<font id="DarkGalaxy" horiz-adv-x="922" >
<font-face units-per-em="2048" ascent="1638" descent="-410" />
<missing-glyph horiz-adv-x="512" />
<glyph unicode=" "  horiz-adv-x="512" />
<glyph unicode="&#x09;" horiz-adv-x="512" />
<glyph unicode="&#xa0;" horiz-adv-x="512" />
<glyph unicode="!" horiz-adv-x="375" d="M85 0v205h205v-205h-205zM85 290v1075h205v-1075h-205z" />
<glyph unicode="&#x22;" horiz-adv-x="649" d="M85 956v68l103 137h-103v204h205v-204zM358 956v68l103 137h-103v204h205v-204z" />
<glyph unicode="#" horiz-adv-x="1365" d="M85 242v953q0 66 52 118t119 52h205v-193q0 -345 -53 -534q-86 -303 -323 -396zM131 53q265 112 367 439q69 220 69 593q0 23 -1 93t-3 187h34v-1365h-341q-72 0 -125 53zM768 0v1365h34l-2 -274q0 -374 69 -596q101 -330 365 -442q-53 -53 -125 -53h-341zM905 1212v153 h204q69 0 120 -51t51 -119v-951q-244 94 -326 413q-49 186 -49 555z" />
<glyph unicode="$" horiz-adv-x="771" d="M85 437h164q7 -56 45 -96q39 -41 92 -41q61 0 100 53q36 48 36 111q0 55 -41 96t-95 41q-128 0 -215 99q-86 100 -86 228q0 95 62 177q63 81 157 112v148h164v-148q91 -28 153 -110t65 -179h-164q-8 55 -45 96q-38 41 -91 41q-63 0 -100 -51q-37 -49 -37 -113 q0 -54 41 -95t96 -41q127 0 216 -101q84 -98 84 -227q0 -96 -63 -177q-61 -80 -155 -112v-148h-164v148q-92 29 -154 110q-60 81 -65 179z" />
<glyph unicode="%" horiz-adv-x="1582" d="M85 915v150q0 118 91 209t210 91q117 0 208 -91q92 -92 92 -209v-150q0 -118 -92 -210q-91 -91 -208 -91q-119 0 -210 91t-91 210zM249 915q0 -55 41 -96t96 -41q54 0 95 41t41 96v150q0 54 -41 95t-95 41q-55 0 -96 -41t-41 -95v-150zM403 -82l583 1601l193 -70 l-583 -1601zM896 300v151q0 117 91 208q92 92 209 92t209 -92t92 -208v-151q0 -117 -92 -209q-91 -91 -209 -91t-209 91t-91 209zM1060 300q0 -54 41 -95t95 -41q55 0 96 41t41 95v151q0 54 -41 95t-96 41q-54 0 -95 -41t-41 -95v-151z" />
<glyph unicode="&#x26;" horiz-adv-x="771" d="M85 437q0 151 98 246q-98 92 -98 245q0 95 62 177q63 81 157 112v148h164v-148q92 -29 154 -110q63 -82 64 -179h-164q-8 55 -45 96q-38 41 -91 41q-55 0 -96 -41t-41 -96q0 -63 36 -111q39 -52 101 -52h68v-164h-68q-55 0 -96 -41t-41 -96q0 -63 36 -111q39 -53 101 -53 q53 0 91 41q37 40 45 96h164q-1 -95 -64 -179q-62 -81 -154 -110v-148h-164v148q-94 28 -157 111q-62 83 -62 178z" />
<glyph unicode="'" horiz-adv-x="375" d="M85 956v68l103 137h-103v204h205v-204z" />
<glyph unicode="(" horiz-adv-x="546" d="M85 683q0 468 239 853h137q-188 -397 -188 -853q0 -455 188 -852h-137q-239 385 -239 852z" />
<glyph unicode=")" horiz-adv-x="546" d="M85 -169q188 397 188 852q0 456 -188 853h137q239 -386 239 -853t-239 -852h-137z" />
<glyph unicode="*" horiz-adv-x="1775" d="M85 0v205h11q339 0 477 310q98 220 98 617q0 54 -1.5 112t-3.5 121h102v-426q0 -380 -148 -634q-181 -305 -528 -305h-7zM802 0v1365h171v-1365h-171zM1007 939v426h102v-164q0 -428 86 -653q131 -343 485 -343h10v-205h-11q-351 0 -529 309q-143 251 -143 630z" />
<glyph unicode="+" horiz-adv-x="683" d="M85 597v171h171v171h171v-171h170v-171h-170v-170h-171v170h-171z" />
<glyph unicode="," horiz-adv-x="375" d="M85 0v205h205v-205l-205 -203v68l103 135h-103z" />
<glyph unicode="-" horiz-adv-x="683" d="M85 597v171h512v-171h-512z" />
<glyph unicode="." horiz-adv-x="375" d="M85 0v205h205v-205h-205z" />
<glyph unicode="/" horiz-adv-x="777" d="M0 -82l584 1601l193 -70l-584 -1601z" />
<glyph unicode="0" horiz-adv-x="836" d="M43 375v615q0 148 113 261q114 114 262 114q149 0 262 -114q114 -113 114 -261v-615q0 -148 -114 -262q-113 -113 -262 -113q-147 0 -262 113q-113 115 -113 262zM247 375q0 -66 52 -118t119 -52t119 52t52 118v615q0 66 -52 118q-53 53 -119 53t-119 -53 q-52 -52 -52 -118v-615z" />
<glyph unicode="1" horiz-adv-x="375" d="M85 0v1365h205v-1365h-205z" />
<glyph unicode="2" d="M85 0v290q0 191 142 312q17 14 263 164q141 87 141 190v34q0 66 -52 118q-53 53 -118 53q-68 0 -114 -52q-46 -51 -57 -119h-205q9 149 118 261q109 114 258 114q148 0 261 -114q114 -113 114 -261v-34q0 -192 -141 -313q-8 -8 -73 -48l-190 -115q-142 -87 -142 -190v-85 h546v-205h-751z" />
<glyph unicode="3" d="M85 375h205q9 -67 56 -119q48 -51 115 -51q76 0 126 65q44 59 44 140q0 66 -52 118t-118 52h-86v205h86q76 0 126 65q44 61 44 140q0 66 -52 118q-53 53 -118 53q-67 0 -115 -52q-47 -52 -56 -119h-205q5 149 115 261q112 114 261 114q148 0 261 -114q114 -113 114 -261 v-34q0 -158 -121 -273q121 -118 121 -308q0 -148 -114 -262q-113 -113 -261 -113t-261 113q-110 113 -115 262z" />
<glyph unicode="4" horiz-adv-x="956" d="M85 768v597h205v-614q0 -106 142 -172q48 -23 106 -40t128 -27v853h204v-1365h-204v307q-581 122 -581 461z" />
<glyph unicode="5" d="M85 375h205q8 -69 55 -119q49 -51 116 -51q66 0 118 52t52 118v188q0 67 -52 119t-118 52q-67 0 -116 -52q-47 -50 -55 -119h-205l34 802h632v-204h-444l-17 -265q82 43 171 43q148 0 261 -114q114 -113 114 -262v-188q0 -148 -114 -262q-113 -113 -261 -113t-261 113 q-110 113 -115 262z" />
<glyph unicode="6" d="M85 375v615q0 148 113 261q114 114 263 114q148 0 259 -114q112 -113 116 -261h-205q-7 67 -56 119q-48 52 -114 52t-119 -53q-52 -52 -52 -118v-179q82 42 171 42q148 0 261 -114q114 -113 114 -261v-103q0 -148 -114 -262q-113 -113 -261 -113t-263 113 q-113 115 -113 262zM290 375q0 -66 52 -118t119 -52q66 0 118 52t52 118v103q0 66 -52 118q-53 53 -118 53q-66 0 -119 -53q-52 -52 -52 -118v-103z" />
<glyph unicode="7" horiz-adv-x="816" d="M85 1161v204h546q54 0 98 -41t44 -95q0 -32 -14 -68l-435 -1161h-205l436 1161h-470z" />
<glyph unicode="8" d="M85 375v35q0 157 125 273q-125 116 -125 307q0 148 113 261q114 114 263 114q148 0 261 -114q114 -113 114 -261v-34q0 -158 -124 -273q124 -115 124 -308q0 -148 -114 -262q-113 -113 -261 -113t-263 113q-113 115 -113 262zM290 410q0 -79 45 -139q49 -66 126 -66 q76 0 126 66q44 61 44 139q0 66 -52 118t-118 52q-67 0 -119 -52t-52 -118zM290 956q0 -67 52 -119t119 -52q66 0 118 52t52 119q0 77 -44 138q-49 67 -126 67t-126 -67q-45 -60 -45 -138z" />
<glyph unicode="9" d="M85 887v103q0 148 113 261q114 114 263 114q148 0 261 -114q114 -113 114 -261v-615q0 -148 -114 -262q-113 -113 -261 -113q-149 0 -260 113q-112 115 -116 262h205q9 -67 56 -119q48 -51 115 -51q66 0 118 52t52 118v180q-80 -43 -170 -43q-148 0 -263 113 q-113 115 -113 262zM290 887q0 -66 52 -118t119 -52q66 0 118 52t52 118v103q0 66 -52 118q-53 53 -118 53q-66 0 -119 -53q-52 -52 -52 -118v-103z" />
<glyph unicode=":" horiz-adv-x="375" d="M85 0v205h205v-205h-205zM85 819v205h205v-205h-205z" />
<glyph unicode=";" horiz-adv-x="375" d="M85 0v205h205v-205l-205 -203v68l103 135h-103zM85 819v205h205v-205h-205z" />
<glyph unicode="&#x3c;" horiz-adv-x="631" d="M85 683q0 57 29 124q0 4 57 115l136 273h239l-256 -512l256 -512h-239l-136 273q-57 111 -57 114q-29 69 -29 125z" />
<glyph unicode="=" horiz-adv-x="853" d="M85 427v170h683v-170h-683zM85 768v171h683v-171h-683z" />
<glyph unicode="&#x3e;" horiz-adv-x="631" d="M85 171l256 512l-256 512h239l137 -273q56 -112 56 -115q29 -67 29 -124q0 -56 -29 -125q0 -2 -56 -114l-137 -273h-239z" />
<glyph unicode="?" d="M85 0v205h205v-205h-205zM85 290v512h205q8 -68 55 -120q49 -51 116 -51q66 0 118 52t52 119v188q0 66 -52 118q-53 53 -118 53q-67 0 -116 -52q-47 -50 -55 -119h-205q5 149 115 261q112 114 261 114q148 0 261 -114q114 -113 114 -261v-188q0 -148 -114 -262 q-113 -113 -261 -113q-89 0 -171 42v-179h-205z" />
<glyph unicode="@" horiz-adv-x="1224" d="M60 0l104 370q12 43 43 43q34 0 46 -43l102 -370h-63l-26 94h-116l-27 -94h-63zM85 469v133h4q380 0 380 613q0 61 -3 150h68v-280q0 -258 -92 -418q-115 -198 -352 -198h-5zM167 155h80l-40 144zM299 352v61h227v-61h-82v-352h-63v352h-82zM469 0l104 370q12 43 45 43 q32 0 42 -43l106 -370h-65l-25 94h-116l-26 -94h-65zM556 469v896h111v-896h-111zM577 155h80l-39 144zM691 1085v280h67q0 -337 44 -489q79 -275 309 -275q13 0 27 1v-133h-8q-227 0 -345 205q-94 166 -94 411zM782 0v370q0 43 41 43h82q44 0 79 -33q35 -32 35 -76 q0 -94 -103 -127l113 -177h-73q-17 20 -33 41l-32 43q-38 55 -38 93q0 32 51 61q52 28 52 61q0 53 -51 53h-62v-352h-61zM1051 0v413h62v-413h-62z" />
<glyph unicode="A" horiz-adv-x="896" d="M-41 0l345 1229q39 136 145 136q108 0 145 -136l345 -1229h-214l-85 307h-382l-87 -307h-212zM316 512h266l-133 474z" />
<glyph unicode="B" horiz-adv-x="964" d="M85 137v1092q0 54 41 95t96 41h239q144 0 260 -107q115 -106 115 -251q0 -183 -152 -290q103 -40 171 -136q67 -94 67 -206q0 -148 -114 -262q-113 -113 -262 -113h-324q-55 0 -96 41t-41 96zM290 205h256q67 0 119 52t52 118q0 67 -52 119t-119 52h-256v-341zM290 751 q341 53 341 239q0 66 -52 118q-53 53 -118 53h-171v-410z" />
<glyph unicode="C" d="M85 375v615q0 148 113 261q114 114 263 114q148 0 259 -114q112 -113 116 -261h-205q-6 69 -55 119q-49 52 -115 52t-119 -53q-52 -52 -52 -118v-615q0 -66 52 -118t119 -52q65 0 115 51q49 50 55 119h205q-3 -149 -115 -262q-113 -113 -260 -113q-148 0 -263 113 q-113 115 -113 262z" />
<glyph unicode="D" d="M85 0v1365h376q148 0 261 -114q114 -113 114 -261v-615q0 -148 -114 -262q-113 -113 -261 -113h-376zM290 205h171q66 0 118 52t52 118v615q0 66 -52 118q-53 53 -118 53h-171v-956z" />
<glyph unicode="E" horiz-adv-x="836" d="M85 137v1092q0 54 41 95t96 41h529v-204h-461v-376h290v-205h-290v-375h461v-205h-529q-55 0 -96 41t-41 96z" />
<glyph unicode="F" horiz-adv-x="794" d="M85 0v1229q0 54 41 95t96 41h529v-204h-461v-376h290v-205h-290v-580h-205z" />
<glyph unicode="G" d="M85 375v615q0 148 113 261q114 114 263 114q147 0 260 -114q112 -112 115 -261h-205q-6 69 -55 119q-49 52 -115 52t-119 -53q-52 -52 -52 -118v-615q0 -66 52 -118t119 -52q66 0 118 52t52 118v205h-170v205h239q54 0 95 -41t41 -95v-649h-205v43q-80 -43 -170 -43 q-148 0 -263 113q-113 115 -113 262z" />
<glyph unicode="H" d="M85 0v1365h205v-580h341v580h205v-1365h-205v580h-341v-580h-205z" />
<glyph unicode="I" horiz-adv-x="375" d="M85 0v1365h205v-1365h-205z" />
<glyph unicode="J" horiz-adv-x="879" d="M43 375v137h204v-137q0 -66 52 -118t119 -52t119 52t52 118v990h205v-990q0 -148 -114 -262q-113 -113 -262 -113q-147 0 -262 113q-113 115 -113 262z" />
<glyph unicode="K" horiz-adv-x="879" d="M85 0v1365h205v-1365h-205zM307 683q0 41 51 148l256 534h222l-324 -682l324 -683h-222l-256 548l-16 32l-16 33q-19 38 -19 70z" />
<glyph unicode="L" horiz-adv-x="794" d="M85 137v1228h205v-1160h461v-205h-529q-55 0 -96 41t-41 96z" />
<glyph unicode="M" horiz-adv-x="1314" d="M85 0v1229q0 53 38 94q39 42 90 42q84 0 133 -136l311 -867l311 867q49 136 133 136q51 0 89 -42q39 -41 39 -94v-1229h-205v777l-230 -640q-50 -137 -137 -137q-86 0 -136 137l-231 640v-777h-205z" />
<glyph unicode="N" d="M85 0v1229q0 53 38 94q39 42 90 42q78 0 133 -136l285 -691v827h205v-1228q0 -53 -39 -95q-38 -42 -89 -42q-77 0 -133 137l-285 691v-828h-205z" />
<glyph unicode="O" horiz-adv-x="836" d="M43 375v615q0 148 113 261q114 114 262 114q149 0 262 -114q114 -113 114 -261v-615q0 -148 -114 -262q-113 -113 -262 -113q-147 0 -262 113q-113 115 -113 262zM247 375q0 -66 52 -118t119 -52t119 52t52 118v615q0 66 -52 118q-53 53 -119 53t-119 -53 q-52 -52 -52 -118v-615z" />
<glyph unicode="P" horiz-adv-x="956" d="M85 0v1229q0 54 41 95t96 41h273q144 0 260 -107q115 -106 115 -251q0 -337 -580 -461v-546h-205zM290 751q376 60 376 239q0 65 -53 118t-118 53h-205v-410z" />
<glyph unicode="Q" horiz-adv-x="870" d="M43 375v615q0 148 113 261q114 114 262 114q149 0 262 -114q114 -113 114 -261v-615q0 -148 -111 -262l145 -48l-63 -193l-427 137q-132 41 -212 134q-83 98 -83 232zM247 375q0 -66 52 -118t119 -52t119 52t52 118v615q0 66 -52 118q-53 53 -119 53t-119 -53 q-52 -52 -52 -118v-615z" />
<glyph unicode="R" horiz-adv-x="947" d="M85 0v1229q0 54 41 95t96 41h273q144 0 260 -107q115 -106 115 -251q0 -144 -97 -260q-98 -116 -237 -158l369 -589h-239l-282 442q-60 94 -60 143q0 93 58 139q4 3 135 75q149 83 149 191q0 65 -53 118t-118 53h-205v-1161h-205z" />
<glyph unicode="S" d="M85 956v34q0 148 113 261q114 114 263 114q148 0 259 -114q112 -113 116 -261h-205q-7 67 -56 119q-48 52 -114 52q-78 0 -124 -63q-47 -62 -47 -142q0 -67 52 -119t119 -52q148 0 261 -114q114 -113 114 -261v-35q0 -148 -114 -262q-113 -113 -261 -113q-149 0 -260 113 q-112 115 -116 262h205q9 -67 56 -119q48 -51 115 -51q76 0 126 65q44 59 44 140q0 66 -52 118t-118 52q-148 0 -263 113q-113 115 -113 263z" />
<glyph unicode="T" horiz-adv-x="785" d="M17 1161v204h751v-204h-273v-1161h-205v1161h-273z" />
<glyph unicode="U" d="M85 375v990h205v-990q0 -66 52 -118t119 -52q66 0 118 52t52 118v990h205v-990q0 -148 -114 -262q-113 -113 -261 -113t-263 113q-113 115 -113 262z" />
<glyph unicode="V" horiz-adv-x="896" d="M-41 1365h212l278 -986l276 986h214l-345 -1228q-38 -137 -145 -137q-106 0 -145 137z" />
<glyph unicode="W" horiz-adv-x="1527" d="M-41 1365h212l278 -986l171 850q11 55 51 95q41 41 94 41q52 0 93 -41q42 -42 52 -95l170 -850l277 986h213l-345 -1228q-38 -137 -145 -137q-53 0 -94 41q-41 40 -51 96l-170 849l-171 -849q-11 -56 -51 -96q-41 -41 -94 -41q-106 0 -145 137z" />
<glyph unicode="X" d="M0 0l341 683l-341 682h239l222 -443l222 443h239l-342 -682l342 -683h-239l-222 444l-222 -444h-239z" />
<glyph unicode="Y" horiz-adv-x="836" d="M-41 1365h237l222 -443l222 443h239l-358 -716v-649h-205v649z" />
<glyph unicode="Z" d="M85 137q0 38 14 68l468 956h-482v204h610q53 0 97 -41t44 -95q0 -42 -13 -68l-468 -956h481v-205h-609q-55 0 -99 41q-43 40 -43 96z" />
<glyph unicode="[" horiz-adv-x="546" d="M85 -32v1431q0 55 41 96t96 41h239v-205h-171v-1297h171v-203h-239q-55 0 -96 41t-41 96z" />
<glyph unicode="\" horiz-adv-x="777" d="M0 1449l193 70l584 -1601l-193 -70z" />
<glyph unicode="]" horiz-adv-x="546" d="M85 34h171v1297h-171v205h239q55 0 96 -41t41 -96v-1431q0 -55 -41 -96t-96 -41h-239v203z" />
<glyph unicode="_" horiz-adv-x="853" d="M-32 -84h919v-170h-919v170z" />
<glyph unicode="a" horiz-adv-x="700" d="M-41 0l275 983q31 109 116 109t116 -109l276 -983h-170l-69 246h-305l-70 -246h-169zM244 410h213l-107 378z" />
<glyph unicode="b" horiz-adv-x="797" d="M85 109v874q0 43 33 76q34 33 77 33h191q117 0 208 -85q92 -86 92 -201q0 -148 -121 -233q82 -32 135 -108q54 -77 54 -165q0 -118 -91 -209t-209 -91h-259q-43 0 -77 33q-33 34 -33 76zM249 164h205q55 0 96 41t41 95q0 55 -41 96t-96 41h-205v-273zM249 601 q273 42 273 191q0 54 -41 95t-95 41h-137v-327z" />
<glyph unicode="c" horiz-adv-x="771" d="M85 300v492q0 118 91 209t210 91q117 0 207 -91q90 -90 93 -209h-164q-7 55 -42 94q-41 42 -94 42q-55 0 -96 -41t-41 -95v-492q0 -54 41 -95t96 -41q54 0 94 43q34 39 42 93h164q-3 -119 -93 -210q-90 -90 -207 -90q-119 0 -210 91t-91 209z" />
<glyph unicode="d" horiz-adv-x="771" d="M85 0v1092h301q117 0 208 -91q92 -92 92 -209v-492q0 -117 -92 -209q-91 -91 -208 -91h-301zM249 164h137q54 0 95 41t41 95v492q0 54 -41 95t-95 41h-137v-764z" />
<glyph unicode="e" horiz-adv-x="703" d="M85 109v874q0 43 33 76q34 33 77 33h423v-164h-369v-300h232v-164h-232v-300h369v-164h-423q-43 0 -77 33q-33 34 -33 76z" />
<glyph unicode="f" horiz-adv-x="660" d="M85 0v983q0 43 33 76q34 33 77 33h423v-164h-369v-300h232v-164h-232v-464h-164z" />
<glyph unicode="g" horiz-adv-x="771" d="M85 300v492q0 118 91 209t210 91q117 0 207 -91q90 -90 93 -209h-164q-4 54 -44 95q-39 41 -92 41q-55 0 -96 -41t-41 -95v-492q0 -54 41 -95t96 -41q54 0 95 41t41 95v164h-136v164h191q43 0 76 -34q33 -33 33 -75v-519h-164v34q-64 -34 -136 -34q-119 0 -210 91 t-91 209z" />
<glyph unicode="h" horiz-adv-x="771" d="M85 0v1092h164v-464h273v464h164v-1092h-164v464h-273v-464h-164z" />
<glyph unicode="i" horiz-adv-x="335" d="M85 0v1092h164v-1092h-164z" />
<glyph unicode="j" horiz-adv-x="729" d="M43 300v110h164v-110q0 -55 40 -95q41 -41 96 -41t96 41t41 95v792h163v-792q0 -118 -91 -209t-209 -91t-209 91t-91 209z" />
<glyph unicode="k" horiz-adv-x="729" d="M85 0v1092h164v-1092h-164zM263 546q0 33 41 120l205 426h177l-259 -546l259 -546h-177l-205 439q-41 88 -41 107z" />
<glyph unicode="l" horiz-adv-x="660" d="M85 109v983h164v-928h369v-164h-423q-43 0 -77 33q-33 34 -33 76z" />
<glyph unicode="m" horiz-adv-x="1085" d="M85 0v983q0 44 31 76q31 33 72 33q66 0 106 -109l249 -693l249 693q39 109 106 109q41 0 71 -33q31 -32 31 -76v-983h-164v621l-184 -512q-39 -109 -109 -109t-110 109l-184 512v-621h-164z" />
<glyph unicode="n" horiz-adv-x="771" d="M85 0v983q0 44 31 76q31 33 72 33q61 0 106 -109l228 -553v662h164v-983q0 -42 -31 -76q-30 -33 -71 -33q-63 0 -106 109l-229 553v-662h-164z" />
<glyph unicode="o" horiz-adv-x="686" d="M43 300v492q0 118 91 209t209 91t209 -91t91 -209v-492q0 -118 -91 -209t-209 -91t-209 91t-91 209zM207 300q0 -55 40 -95q41 -41 96 -41t96 41t41 95v492q0 54 -41 95t-96 41t-96 -41q-40 -40 -40 -95v-492z" />
<glyph unicode="p" horiz-adv-x="756" d="M85 0v983q0 43 33 76q34 33 77 33h218q117 0 208 -85q92 -86 92 -201q0 -270 -464 -369v-437h-164zM249 601q301 46 301 191q0 54 -41 95t-96 41h-164v-327z" />
<glyph unicode="q" horiz-adv-x="713" d="M43 300v492q0 118 91 209t209 91t209 -91t91 -209v-492q0 -119 -88 -210l116 -39l-51 -153l-342 109q-101 34 -169 111q-66 78 -66 182zM207 300q0 -55 40 -95q41 -41 96 -41t96 41t41 95v492q0 54 -41 95t-96 41t-96 -41q-40 -40 -40 -95v-492z" />
<glyph unicode="r" horiz-adv-x="783" d="M85 0v983q0 43 33 76q34 33 77 33h218q117 0 208 -85q92 -86 92 -201t-78 -208q-76 -92 -190 -127l296 -471h-191l-226 353q-48 75 -48 115q0 75 70 126l67 38l67 39q70 49 70 121q0 54 -41 95t-96 41h-164v-928h-164z" />
<glyph unicode="s" horiz-adv-x="771" d="M85 300h164q8 -55 45 -95q39 -41 92 -41q61 0 100 53q36 48 36 111q0 54 -41 95t-95 41q-128 0 -215 99q-86 100 -86 229q0 118 91 209t210 91q117 0 207 -91q90 -90 93 -209h-164q-7 54 -45 95t-91 41q-62 0 -100 -50q-37 -49 -37 -113q0 -55 41 -96t96 -41 q127 0 216 -101q84 -98 84 -227q0 -117 -92 -209q-91 -91 -208 -91q-118 0 -208 90q-89 91 -93 210z" />
<glyph unicode="t" horiz-adv-x="635" d="M17 928v164h601v-164h-219v-928h-163v928h-219z" />
<glyph unicode="u" horiz-adv-x="771" d="M85 300v792h164v-792q0 -54 41 -95t96 -41q54 0 95 41t41 95v792h164v-792q0 -117 -92 -209q-91 -91 -208 -91q-119 0 -210 91t-91 209z" />
<glyph unicode="v" horiz-adv-x="700" d="M-41 1092h169l222 -788l222 788h170l-276 -983q-31 -109 -116 -109t-116 109z" />
<glyph unicode="w" horiz-adv-x="1205" d="M-41 1092h169l222 -788l136 679q4 22 15 42t26.5 35t34.5 23.5t40 8.5t40.5 -8.5t35 -23.5t26 -35t15.5 -42l136 -679l222 788h171l-277 -983q-31 -109 -116 -109q-21 0 -40.5 8.5t-34.5 23.5t-26 35t-15 42l-137 679l-136 -679q-5 -22 -15.5 -42t-25.5 -35t-34.5 -23.5 t-40.5 -8.5q-85 0 -116 109z" />
<glyph unicode="x" horiz-adv-x="737" d="M0 0l273 546l-273 546h191l178 -355l177 355h191l-273 -546l273 -546h-191l-177 355l-178 -355h-191z" />
<glyph unicode="y" horiz-adv-x="652" d="M-41 1092h189l178 -355l177 355h192l-287 -573v-519h-164v519z" />
<glyph unicode="z" horiz-adv-x="771" d="M85 109q0 33 11 55l375 764h-386v164h488q44 0 79 -33q34 -31 34 -76q0 -35 -10 -55l-376 -764h386v-164h-488q-44 0 -79 32q-34 33 -34 77z" />
<glyph unicode="{" horiz-adv-x="546" d="M85 -32v1431q0 55 41 96t96 41h239v-205h-171v-1297h171v-203h-239q-55 0 -96 41t-41 96z" />
<glyph unicode="|" horiz-adv-x="375" d="M85 -169v1705h205v-1705h-205z" />
<glyph unicode="}" horiz-adv-x="546" d="M85 34h171v1297h-171v205h239q55 0 96 -41t41 -96v-1431q0 -55 -41 -96t-96 -41h-239v203z" />
<glyph horiz-adv-x="375" d="M85 0v205h205v-205l-205 -203v68l103 135h-103z" />
<glyph unicode="&#x201a;" horiz-adv-x="375" d="M85 0v205h205v-205l-205 -203v68l103 135h-103z" />
<glyph horiz-adv-x="649" d="M85 0v205h205v-205l-205 -203v68l103 135h-103zM358 0v205h205v-205l-205 -203v68l103 135h-103z" />
<glyph unicode="&#x201e;" horiz-adv-x="649" d="M85 0v205h205v-205l-205 -203v68l103 135h-103zM358 0v205h205v-205l-205 -203v68l103 135h-103z" />
<glyph horiz-adv-x="375" d="M85 956v205l205 204v-68l-102 -136h102v-205h-205z" />
<glyph unicode="&#x2018;" horiz-adv-x="375" d="M85 956v205l205 204v-68l-102 -136h102v-205h-205z" />
<glyph horiz-adv-x="375" d="M85 956v68l103 137h-103v204h205v-204z" />
<glyph unicode="&#x2019;" horiz-adv-x="375" d="M85 956v68l103 137h-103v204h205v-204z" />
<glyph horiz-adv-x="649" d="M85 956v205l205 204v-68l-102 -136h102v-205h-205zM358 956v205l205 204v-68l-102 -136h102v-205h-205z" />
<glyph unicode="&#x201c;" horiz-adv-x="649" d="M85 956v205l205 204v-68l-102 -136h102v-205h-205zM358 956v205l205 204v-68l-102 -136h102v-205h-205z" />
<glyph horiz-adv-x="649" d="M85 956v68l103 137h-103v204h205v-204zM358 956v68l103 137h-103v204h205v-204z" />
<glyph unicode="&#x201d;" horiz-adv-x="649" d="M85 956v68l103 137h-103v204h205v-204zM358 956v68l103 137h-103v204h205v-204z" />
<glyph unicode="&#xa1;" horiz-adv-x="375" d="M85 0v1075h205v-1075h-205zM85 1161v204h205v-204h-205z" />
<glyph unicode="&#xa2;" horiz-adv-x="771" d="M85 778v150q0 95 62 177q63 81 157 112v148h164v-148q91 -28 153 -110t65 -179h-164q-4 55 -44 96q-39 41 -92 41q-55 0 -96 -41t-41 -96v-150q0 -54 41 -95t96 -41q53 0 92 41q40 41 44 95h164q-1 -96 -64 -178q-62 -81 -154 -110v-149h-164v149q-94 31 -157 112 q-62 82 -62 176z" />
<glyph unicode="&#xaa;" horiz-adv-x="700" d="M-41 0l275 983q31 109 116 109t116 -109l276 -983h-170l-69 246h-305l-70 -246h-169zM244 410h213l-107 378z" />
<glyph unicode="&#xad;" horiz-adv-x="683" d="M85 597v171h512v-171h-512z" />
<glyph unicode="&#xb2;" d="M85 0v290q0 191 142 312q17 14 263 164q141 87 141 190v34q0 66 -52 118q-53 53 -118 53q-68 0 -114 -52q-46 -51 -57 -119h-205q9 149 118 261q109 114 258 114q148 0 261 -114q114 -113 114 -261v-34q0 -192 -141 -313q-8 -8 -73 -48l-190 -115q-142 -87 -142 -190v-85 h546v-205h-751z" />
<glyph unicode="&#xb3;" d="M85 375h205q9 -67 56 -119q48 -51 115 -51q76 0 126 65q44 59 44 140q0 66 -52 118t-118 52h-86v205h86q76 0 126 65q44 61 44 140q0 66 -52 118q-53 53 -118 53q-67 0 -115 -52q-47 -52 -56 -119h-205q5 149 115 261q112 114 261 114q148 0 261 -114q114 -113 114 -261 v-34q0 -158 -121 -273q121 -118 121 -308q0 -148 -114 -262q-113 -113 -261 -113t-261 113q-110 113 -115 262z" />
<glyph unicode="&#xb9;" horiz-adv-x="375" d="M85 0v1365h205v-1365h-205z" />
<glyph unicode="&#xba;" horiz-adv-x="686" d="M43 300v492q0 118 91 209t209 91t209 -91t91 -209v-492q0 -118 -91 -209t-209 -91t-209 91t-91 209zM207 300q0 -55 40 -95q41 -41 96 -41t96 41t41 95v492q0 54 -41 95t-96 41t-96 -41q-40 -40 -40 -95v-492z" />
<glyph unicode="&#xbf;" d="M85 375v188q0 149 113 262q114 114 263 114q90 0 170 -43v179h205v-512h-205q-6 69 -55 119q-49 52 -115 52q-67 0 -119 -52t-52 -119v-188q0 -66 52 -118t119 -52q65 0 115 51q49 50 55 119h205q-3 -149 -115 -262q-113 -113 -260 -113q-148 0 -263 113 q-113 115 -113 262zM631 1161v204h205v-204h-205z" />
<glyph unicode="&#x152;" horiz-adv-x="1672" d="M43 375v615q0 148 113 261q114 114 262 114q149 0 262 -114q114 -113 114 -261v-615q0 -148 -114 -262q-113 -113 -262 -113q-147 0 -262 113q-113 115 -113 262zM247 375q0 -66 52 -118t119 -52t119 52t52 118v615q0 66 -52 118q-53 53 -119 53t-119 -53 q-52 -52 -52 -118v-615zM921 137v1092q0 54 41 95t96 41h529v-204h-461v-376h290v-205h-290v-375h461v-205h-529q-55 0 -96 41t-41 96z" />
<glyph unicode="&#x153;" horiz-adv-x="1389" d="M43 300v492q0 118 91 209t209 91t209 -91t91 -209v-492q0 -118 -91 -209t-209 -91t-209 91t-91 209zM207 300q0 -55 40 -95q41 -41 96 -41t96 41t41 95v492q0 54 -41 95t-96 41t-96 -41q-40 -40 -40 -95v-492zM771 109v874q0 43 33 76q34 33 77 33h423v-164h-369v-300 h232v-164h-232v-300h369v-164h-423q-43 0 -77 33q-33 34 -33 76z" />
<glyph unicode="&#x2013;" horiz-adv-x="1024" d="M85 597v171h853v-171h-853z" />
<glyph unicode="&#x2014;" horiz-adv-x="2048" d="M85 597v171h1877v-171h-1877z" />
<glyph unicode="&#x2026;" horiz-adv-x="1125" d="M85 0v205h205v-205h-205zM460 0v205h205v-205h-205zM835 0v205h205v-205h-205z" />
<glyph unicode="&#x2039;" horiz-adv-x="631" d="M85 683q0 57 29 124q0 4 57 115l136 273h239l-256 -512l256 -512h-239l-136 273q-57 111 -57 114q-29 69 -29 125z" />
<glyph unicode="&#x203a;" horiz-adv-x="631" d="M85 171l256 512l-256 512h239l137 -273q56 -112 56 -115q29 -67 29 -124q0 -56 -29 -125q0 -2 -56 -114l-137 -273h-239z" />
<glyph unicode="&#x2122;" horiz-adv-x="2099" d="M17 1161v204h751v-204h-273v-1161h-205v1161h-273zM870 0v1229q0 53 38 94q39 42 90 42q84 0 133 -136l311 -867l311 867q49 136 133 136q51 0 89 -42q39 -41 39 -94v-1229h-205v777l-230 -640q-50 -137 -137 -137q-86 0 -136 137l-231 640v-777h-205z" />
<glyph unicode="&#xe000;" horiz-adv-x="1090" d="M0 1090h1090v-1090h-1090v1090z" />
<glyph unicode="&#xfb01;" horiz-adv-x="995" d="M85 0v983q0 43 33 76q34 33 77 33h423v-164h-369v-300h232v-164h-232v-464h-164zM745 0v1092h164v-1092h-164z" />
<glyph unicode="&#xfb02;" horiz-adv-x="1320" d="M85 0v983q0 43 33 76q34 33 77 33h423v-164h-369v-300h232v-164h-232v-464h-164zM745 109v983h164v-928h369v-164h-423q-43 0 -77 33q-33 34 -33 76z" />
<glyph unicode="&#xfb03;" horiz-adv-x="1655" d="M85 0v983q0 43 33 76q34 33 77 33h423v-164h-369v-300h232v-164h-232v-464h-164zM745 0v983q0 43 33 76q34 33 77 33h423v-164h-369v-300h232v-164h-232v-464h-164zM1405 0v1092h164v-1092h-164z" />
<glyph unicode="&#xfb04;" horiz-adv-x="1980" d="M85 0v983q0 43 33 76q34 33 77 33h423v-164h-369v-300h232v-164h-232v-464h-164zM745 0v983q0 43 33 76q34 33 77 33h423v-164h-369v-300h232v-164h-232v-464h-164zM1405 109v983h164v-928h369v-164h-423q-43 0 -77 33q-33 34 -33 76z" />
</font>
</defs>
</svg>
