<svg fill="#000000" viewBox="0 0 32 32" data-name="Layer 1" id="Layer_1" xmlns="http://www.w3.org/2000/svg">
    <g id="SVGRepo_bgCarrier" stroke-width="0"></g>
    <g id="SVGRepo_tracerCarrier" stroke-linecap="round" stroke-linejoin="round"></g>
    <g id="SVGRepo_iconCarrier">
        <title></title>
        <path d="M27.2,10.1H24.48V7a2.41,2.41,0,0,0-2.41-2.4H4.41A2.41,2.41,0,0,0,2,7V19.5a2.41,2.41,0,0,0,2.41,2.4H7.52v2.72a2.8,2.8,0,0,0,2.8,2.8H27.2a2.8,2.8,0,0,0,2.8-2.8V12.9A2.8,2.8,0,0,0,27.2,10.1ZM4.41,20a.54.54,0,0,1-.54-.54V7a.54.54,0,0,1,.54-.54H22.07a.54.54,0,0,1,.54.54V10.1H10.32a2.8,2.8,0,0,0-2.8,2.8V20Zm23.72,4.58a.94.94,0,0,1-.93.94H10.32a.94.94,0,0,1-.93-.94V12.9a.94.94,0,0,1,.93-.94H27.2a.94.94,0,0,1,.93.94Z"></path>
        <path d="M24.65,15.62H12.87a.94.94,0,0,0,0,1.87H24.65a.94.94,0,0,0,0-1.87Z"></path>
        <path d="M24.65,20H12.87a.93.93,0,1,0,0,1.86H24.65a.93.93,0,0,0,0-1.86Z"></path>
    </g>
</svg>